<svg xmlns="http://www.w3.org/2000/svg" viewBox="0 0 32 32" width="32" height="32">
  <!-- Orange rounded square background -->
  <rect width="32" height="32" rx="7" fill="#ea580c"/>
  <!-- Lucide Flame icon (24×24 viewbox scaled and centered) -->
  <g transform="translate(6, 6) scale(0.833)">
    <path
      d="M8.5 14.5A2.5 2.5 0 0 0 11 12c0-1.38-.5-2-1-3-1.072-2.143-.224-4.054 2-6 .5 2.5 2 4.9 4 6.5 2 1.6 3 3.5 3 5.5a7 7 0 1 1-14 0c0-1.153.433-2.294 1-3a2.5 2.5 0 0 0 2.5 2.5z"
      fill="white"
      stroke="white"
      stroke-width="0.3"
    />
  </g>
</svg>
